# xmcd CD database file generated by OrangeCD 5.2
#
# Track frame offsets:
#	150
#	15130
#	35180
#	50470
#	72183
#	87758
#	104688
#	120910
#	133968
#	150025
#	165793
#	181393
#
# Disc length: 2579 seconds
#
# Revision: 3
# Processed by: cddbd v1.5.2PL0 Copyright (c) Steve Scherf et al.
# Submitted via: OrangeCD 5.2
#
DISCID=890a110c
DTITLE=Little Charlie and The Nightcats - The Big Break
DYEAR=1989
DGENRE=Blues
TTITLE0=The Big Break
TTITLE1=Don't Do It
TTITLE2=Dump That Chump
TTITLE3=I Beg Your Pardon
TTITLE4=Kansas City Woman
TTITLE5=Hurry Up and Wait
TTITLE6=That's O.K.
TTITLE7=Jump Start
TTITLE8=Side Stuff
TTITLE9=Some Nerve
TTITLE10=Lottery
TTITLE11=Me and Miss Ann
EXTD=
EXTT0=
EXTT1=
EXTT2=
EXTT3=
EXTT4=
EXTT5=
EXTT6=
EXTT7=
EXTT8=
EXTT9=
EXTT10=
EXTT11=
PLAYORDER=
